<?xml version="1.0" standalone="no"?>
<!DOCTYPE svg PUBLIC "-//W3C//DTD SVG 20010904//EN"
 "http://www.w3.org/TR/2001/REC-SVG-20010904/DTD/svg10.dtd">
<svg version="1.0" xmlns="http://www.w3.org/2000/svg"
 width="200.000000pt" height="200.000000pt" viewBox="0 0 200.000000 200.000000"
 preserveAspectRatio="xMidYMid meet">

<g transform="translate(0.000000,200.000000) scale(0.100000,-0.100000)"
fill="#000000" stroke="none">
<path d="M776 1822 c-2 -4 -86 -235 -186 -512 -99 -277 -183 -506 -185 -508
-2 -3 -30 -10 -62 -16 -47 -10 -58 -16 -58 -31 0 -19 9 -20 178 -23 l177 -2 0
24 c0 23 -5 25 -65 31 -36 4 -68 12 -71 17 -3 5 17 76 46 158 l52 149 159 3
c88 2 159 2 159 1 0 -2 -21 -22 -46 -45 -86 -79 -131 -189 -141 -343 -18 -286
108 -483 348 -540 74 -17 251 -20 330 -5 30 6 89 20 132 31 l77 21 0 163 0
163 48 9 c37 6 47 12 47 28 0 19 -7 20 -180 20 -173 0 -180 -1 -180 -20 0 -17
9 -21 63 -28 l62 -9 0 -143 0 -143 -38 -15 c-72 -29 -195 -42 -268 -28 -200
37 -288 173 -287 446 0 180 40 305 118 374 21 18 39 31 40 29 9 -9 94 -271 90
-278 -3 -4 -34 -11 -70 -15 -60 -6 -65 -8 -65 -31 l0 -24 228 2 c219 3 227 4
227 23 0 17 -11 22 -63 31 -35 6 -67 15 -72 20 -9 10 -120 301 -120 315 0 28
213 -5 283 -43 39 -22 43 -27 52 -83 9 -51 14 -60 33 -63 23 -3 23 -3 20 105
l-3 108 -85 17 c-47 10 -139 20 -205 23 l-120 4 -120 320 -120 320 -77 1 c-42
0 -79 -4 -82 -8z m138 -374 l93 -253 -185 -3 c-102 -1 -186 -1 -188 1 -2 2 18
64 44 138 27 74 68 189 92 257 23 67 45 121 47 118 3 -3 47 -119 97 -258z"/>
</g>
</svg>
